<svg xmlns="http://www.w3.org/2000/svg" viewBox="0 0 419 481.34" width="35" height="45" fill="#1e88e5">
    <g id="Layer_2" data-name="Layer 2">
        <path d="M415,117.41l-1.7-1-.34-.19L213.5,1.07a8,8,0,0,0-8,0L4,117.41a8,8,0,0,0-4,6.93V357a8,8,0,0,0,4,6.93L205.5,480.27a8,8,0,0,0,8,0L415,363.94a8,8,0,0,0,4-6.93V124.34A8,8,0,0,0,415,117.41ZM209.5,17.24,392.84,123.09,322,163V89.69a8,8,0,0,0-11.92-7L266,107.52V65.69a8,8,0,0,0-11.92-7L218,79V42.69a8,8,0,0,0-11.92-7l-124,69.79a8,8,0,0,0-4.08,7v41.59L24.11,124.28Zm-.43,209.28L198,220.4V164.16l108-60.79V172ZM202,88l-71.92,40.48a8,8,0,0,0-4.08,7V180.6L94,162.91V117.16L202,56.37Zm-60,52.13L250,79.37v35.71a7.87,7.87,0,0,0,.13,1.38l-64,36.05a8,8,0,0,0-4.08,7v52.07l-40-22.11ZM16,138.08,202,240.89V459.78L16,352.39ZM218,459.2V239.85L403,135.73V352.39Z" id="Layer_1-2" data-name="Layer 1" />
    </g>
</svg>