<?xml version="1.0" encoding="UTF-8"?>
<svg width="78px" height="83px" viewBox="0 0 78 83" version="1.1" xmlns="http://www.w3.org/2000/svg" xmlns:xlink="http://www.w3.org/1999/xlink">
    <!-- Generator: Sketch 59 (86127) - https://sketch.com -->
    <title>bill (1)</title>
    <desc>Created with Sketch.</desc>
    <g id="Page-1" stroke="none" stroke-width="1" fill="none" fill-rule="evenodd">
        <g id="alert" transform="translate(-480.000000, -292.000000)" fill-rule="nonzero">
            <g id="Succeed" transform="translate(353.000000, 292.000000)">
                <g id="bill-(1)" transform="translate(127.000000, 0.000000)">
                    <path d="M17.9919786,39.7159091 L17.9919786,9.5093582 C17.9919786,4.87433155 14.2720589,1.09826207 9.63770045,1.02874336 L9.63770045,1.02673797 L56.0668449,1.02673797 C59.8475936,1.02673797 62.9117647,4.0915775 62.9117647,7.87165775 L62.9117647,72.5561497 L57.2987968,68.0641711 L51.684492,72.5561497 L46.0701871,68.0641711 L40.453877,72.5561497 L34.8389038,68.0641711 L29.2245989,72.5561497 L23.6082889,68.0641711 L17.9919786,72.5561497 L17.9919786,39.7159091 Z" id="Path" fill="#CFD8DC"></path>
                    <path d="M9.63770045,1.02874336 C14.2720589,1.09826207 17.9919786,4.87433155 17.9919786,9.5093582 L17.9919786,39.7159091 L14.2546791,35.3389038 L9.96323525,39.5855615 L5.92446528,35.3389038 L1.02673797,39.5855615 L1.02673797,9.5093582 C1.02740637,4.82486622 4.82486622,1.02740637 9.5093582,1.02673797 C9.55213895,1.02673797 9.5949197,1.02673797 9.63770045,1.02874336 Z" id="Path" fill="#B0BEC5"></path>
                    <g id="Group">
                        <path d="M0.600267294,40.5200534 C0.965909048,40.6871658 1.39572193,40.625 1.69919795,40.361631 L5.85628338,36.7573529 L9.21925134,40.2934492 C9.40909091,40.4933154 9.6717914,40.6082889 9.94719247,40.6129679 C10.2232621,40.6169787 10.4893048,40.5100268 10.6851604,40.3161764 L14.1911766,36.8462566 L16.9652406,40.0942513 L16.9652406,72.5561497 C16.9652406,72.9505348 17.1911766,73.3108288 17.5474599,73.4819518 C17.9030749,73.6524064 18.3255348,73.6042781 18.6336898,73.3582888 L23.6082889,69.3790107 L28.5828877,73.3582888 C28.9585561,73.6584224 29.4913102,73.6584224 29.8663102,73.3582888 L34.8395722,69.3790107 L39.8128342,73.3582888 C40.1878342,73.6584224 40.7212567,73.6584224 41.0962567,73.3582888 L46.0701871,69.3790107 L51.0434492,73.3576204 C51.4184491,73.6584224 51.9518717,73.6584224 52.3268716,73.3576204 L57.3001336,69.3790107 L62.2713905,73.3576204 C62.5795455,73.6042781 63.0013368,73.651738 63.356952,73.480615 C63.7118984,73.3101604 63.9385027,72.9505348 63.9385027,72.5561497 L63.9385027,7.87165775 C63.9338235,3.52606956 60.4124331,0.00467915294 56.0668449,-5.68434189e-14 L9.63770045,-5.68434189e-14 C9.62633686,-5.68434189e-14 9.61497326,-5.68434189e-14 9.60360967,-5.68434189e-14 C9.57219251,-5.68434189e-14 9.54077536,-5.68434189e-14 9.5086898,-5.68434189e-14 C4.2573529,-5.68434189e-14 0.000668449198,4.2580213 0,9.5093582 L0,39.5855615 C0,39.987968 0.234625711,40.3529412 0.600267294,40.5200534 Z M56.0668449,2.05347594 C59.2787433,2.05681814 61.8816845,4.6597594 61.8850267,7.87165775 L61.8850267,70.4197861 L57.9405081,67.2627005 C57.5655081,66.9618984 57.0320856,66.9618984 56.6570856,67.2627005 L51.684492,71.2413101 L46.7112299,67.2627005 C46.33623,66.9618984 45.8028074,66.9618984 45.4278075,67.2627005 L40.4532086,71.2413101 L35.4799466,67.2627005 C35.1049465,66.9625668 34.5715241,66.9625668 34.1965241,67.2627005 L29.2232621,71.2413101 L24.2486631,67.2627005 C23.8736631,66.9618984 23.3402406,66.9618984 22.9652406,67.2627005 L19.0187166,70.4204545 L19.0187166,39.9445187 C19.046123,39.8088234 19.046123,39.6691176 19.0187166,39.534091 L19.0187166,9.5093582 C19.012032,6.59959889 17.6744652,3.85294118 15.3877005,2.05347594 L56.0668449,2.05347594 Z M2.05347594,9.5093582 C2.05414434,5.39171114 5.39171114,2.05414434 9.5093582,2.05347594 C9.53877014,2.05347594 9.56818173,2.05347594 9.59759367,2.05414434 L9.62232625,2.05414434 C13.6891712,2.13168445 16.9491979,5.44251345 16.9652406,9.5093582 L16.9652406,36.9318181 L15.0354278,34.6717914 C14.8502674,34.4545455 14.5828877,34.3248664 14.2981284,34.3128342 C14.0127006,34.3008021 13.7352941,34.4077539 13.532754,34.6089573 L9.98529403,38.1196524 L6.6684492,34.631016 C6.29010687,34.2332887 5.66644381,34.2032086 5.2520053,34.5628341 L2.05347594,37.33623 L2.05347594,9.5093582 Z" id="Shape" fill="#78909C"></path>
                        <path d="M23.8221926,35.9358289 L24.2225935,35.9358289 C24.7894385,35.9358289 25.2493315,35.4759358 25.2493315,34.9090909 C25.2493315,34.342246 24.7894385,33.8823529 24.2225935,33.8823529 L23.8221926,33.8823529 C23.2553477,33.8823529 22.7954546,34.342246 22.7954546,34.9090909 C22.7954546,35.4759358 23.2553477,35.9358289 23.8221926,35.9358289 Z" id="Path" fill="#B0BEC5"></path>
                        <path d="M28.2306149,35.9358289 L31.2640375,35.9358289 C31.8315508,35.9358289 32.2907754,35.4759358 32.2907754,34.9090909 C32.2907754,34.342246 31.8315508,33.8823529 31.2640375,33.8823529 L28.2306149,33.8823529 C27.6631016,33.8823529 27.203877,34.342246 27.203877,34.9090909 C27.203877,35.4759358 27.6631016,35.9358289 28.2306149,35.9358289 Z" id="Path" fill="#B0BEC5"></path>
                        <path d="M35.3355616,35.9358289 L57.0835561,35.9358289 C57.650401,35.9358289 58.1102941,35.4759358 58.1102941,34.9090909 C58.1102941,34.342246 57.650401,33.8823529 57.0835561,33.8823529 L35.3355616,33.8823529 C34.7680481,33.8823529 34.3088236,34.342246 34.3088236,34.9090909 C34.3088236,35.4759358 34.7680481,35.9358289 35.3355616,35.9358289 Z" id="Path" fill="#B0BEC5"></path>
                        <path d="M23.8221926,27.3796791 L24.2225935,27.3796791 C24.7894385,27.3796791 25.2493315,26.9197861 25.2493315,26.3529412 C25.2493315,25.7860963 24.7894385,25.3262032 24.2225935,25.3262032 L23.8221926,25.3262032 C23.2553477,25.3262032 22.7954546,25.7860963 22.7954546,26.3529412 C22.7954546,26.9197861 23.2553477,27.3796791 23.8221926,27.3796791 Z" id="Path" fill="#B0BEC5"></path>
                        <path d="M28.2306149,27.3796791 L31.2640375,27.3796791 C31.8315508,27.3796791 32.2907754,26.9197861 32.2907754,26.3529412 C32.2907754,25.7860963 31.8315508,25.3262032 31.2640375,25.3262032 L28.2306149,25.3262032 C27.6631016,25.3262032 27.203877,25.7860963 27.203877,26.3529412 C27.203877,26.9197861 27.6631016,27.3796791 28.2306149,27.3796791 Z" id="Path" fill="#B0BEC5"></path>
                        <path d="M35.3355616,27.3796791 L57.0835561,27.3796791 C57.650401,27.3796791 58.1102941,26.9197861 58.1102941,26.3529412 C58.1102941,25.7860963 57.650401,25.3262032 57.0835561,25.3262032 L35.3355616,25.3262032 C34.7680481,25.3262032 34.3088236,25.7860963 34.3088236,26.3529412 C34.3088236,26.9197861 34.7680481,27.3796791 35.3355616,27.3796791 Z" id="Path" fill="#B0BEC5"></path>
                        <path d="M23.8221926,18.8235294 L24.2225935,18.8235294 C24.7894385,18.8235294 25.2493315,18.3636364 25.2493315,17.7967914 C25.2493315,17.2299465 24.7894385,16.7700535 24.2225935,16.7700535 L23.8221926,16.7700535 C23.2553477,16.7700535 22.7954546,17.2299465 22.7954546,17.7967914 C22.7954546,18.3636364 23.2553477,18.8235294 23.8221926,18.8235294 Z" id="Path" fill="#B0BEC5"></path>
                        <path d="M28.2306149,18.8235294 L31.2640375,18.8235294 C31.8315508,18.8235294 32.2907754,18.3636364 32.2907754,17.7967914 C32.2907754,17.2299465 31.8315508,16.7700535 31.2640375,16.7700535 L28.2306149,16.7700535 C27.6631016,16.7700535 27.203877,17.2299465 27.203877,17.7967914 C27.203877,18.3636364 27.6631016,18.8235294 28.2306149,18.8235294 Z" id="Path" fill="#B0BEC5"></path>
                        <path d="M35.3355616,18.8235294 L57.0835561,18.8235294 C57.650401,18.8235294 58.1102941,18.3636364 58.1102941,17.7967914 C58.1102941,17.2299465 57.650401,16.7700535 57.0835561,16.7700535 L35.3355616,16.7700535 C34.7680481,16.7700535 34.3088236,17.2299465 34.3088236,17.7967914 C34.3088236,18.3636364 34.7680481,18.8235294 35.3355616,18.8235294 Z" id="Path" fill="#B0BEC5"></path>
                        <path d="M23.8221926,44.4919786 L24.2225935,44.4919786 C24.7894385,44.4919786 25.2493315,44.0320856 25.2493315,43.4652406 C25.2493315,42.8983957 24.7894385,42.4385027 24.2225935,42.4385027 L23.8221926,42.4385027 C23.2553477,42.4385027 22.7954546,42.8983957 22.7954546,43.4652406 C22.7954546,44.0320856 23.2553477,44.4919786 23.8221926,44.4919786 Z" id="Path" fill="#B0BEC5"></path>
                        <path d="M28.2306149,44.4919786 L31.2640375,44.4919786 C31.8315508,44.4919786 32.2907754,44.0320856 32.2907754,43.4652406 C32.2907754,42.8983957 31.8315508,42.4385027 31.2640375,42.4385027 L28.2306149,42.4385027 C27.6631016,42.4385027 27.203877,42.8983957 27.203877,43.4652406 C27.203877,44.0320856 27.6631016,44.4919786 28.2306149,44.4919786 Z" id="Path" fill="#B0BEC5"></path>
                        <path d="M35.3355616,44.4919786 L57.0835561,44.4919786 C57.650401,44.4919786 58.1102941,44.0320856 58.1102941,43.4652406 C58.1102941,42.8983957 57.650401,42.4385027 57.0835561,42.4385027 L35.3355616,42.4385027 C34.7680481,42.4385027 34.3088236,42.8983957 34.3088236,43.4652406 C34.3088236,44.0320856 34.7680481,44.4919786 35.3355616,44.4919786 Z" id="Path" fill="#B0BEC5"></path>
                        <path d="M26.381016,61.9665776 L26.362968,61.9665776 C25.525401,61.9605615 24.849599,61.2807487 24.8489306,60.4438503 C24.8489306,59.8763369 24.3890375,59.4171123 23.8221926,59.4171123 C23.2553477,59.4171123 22.7954407,59.8763369 22.7954407,60.4438503 C22.7974599,62.0220588 23.8335562,63.4131015 25.3449198,63.8683156 L25.3449198,64.5113636 C25.3449198,65.0782085 25.8048128,65.5381016 26.3716578,65.5381016 C26.9391711,65.5381016 27.3983957,65.0782085 27.3983957,64.5113636 L27.3983957,63.8683156 C29.0995989,63.3596256 30.1697862,61.6798128 29.9124331,59.9231283 C29.6544118,58.1664438 28.1470588,56.8643048 26.3716578,56.8656418 C25.5300802,56.8656418 24.8469252,56.1824866 24.8469252,55.3409092 C24.8469252,54.498663 25.5300802,53.8161764 26.3716578,53.8161764 C27.2139037,53.8161764 27.8963903,54.498663 27.8963903,55.3409092 C27.8963903,55.9077541 28.3562834,56.3676471 28.9231283,56.3676471 C29.4906418,56.3676471 29.9498663,55.9077541 29.9498663,55.3409092 C29.9478609,53.7606951 28.9117647,52.368984 27.3983957,51.9144385 L27.3983957,51.3883689 C27.3983957,50.8208556 26.9391711,50.361631 26.3716578,50.361631 C25.8048128,50.361631 25.3449198,50.8208556 25.3449198,51.3883689 L25.3449198,51.9151069 C23.6450534,52.4251337 22.5762033,54.1042781 22.8335562,55.8602942 C23.0909091,57.6169787 24.5969251,58.9184493 26.3716578,58.9191177 C27.2132353,58.9171123 27.8977273,59.5969251 27.9004011,60.4385027 C27.9024065,61.2800803 27.2225935,61.9639037 26.381016,61.9665776 L26.381016,61.9665776 Z" id="Path" fill="#B0BEC5"></path>
                        <path d="M57.0835561,59.67246 L55.1276738,59.67246 C54.5601605,59.67246 54.1009359,60.1316844 54.1009359,60.6991979 C54.1009359,61.2660429 54.5601605,61.7259359 55.1276738,61.7259359 L57.0835561,61.7259359 C57.650401,61.7259359 58.1102941,61.2660429 58.1102941,60.6991979 C58.1102941,60.1316844 57.650401,59.67246 57.0835561,59.67246 Z" id="Path" fill="#B0BEC5"></path>
                        <path d="M51.4485295,59.67246 L45.8322192,59.67246 C45.2647059,59.67246 44.8054812,60.1316844 44.8054812,60.6991979 C44.8054812,61.2660429 45.2647059,61.7259359 45.8322192,61.7259359 L51.4485295,61.7259359 C52.0153744,61.7259359 52.4752674,61.2660429 52.4752674,60.6991979 C52.4752674,60.1316844 52.0153744,59.67246 51.4485295,59.67246 Z" id="Path" fill="#B0BEC5"></path>
                        <path d="M34.5808823,61.7259359 L42.1958556,61.7259359 C42.7627005,61.7259359 43.2225935,61.2660429 43.2225935,60.6991979 C43.2225935,60.1316844 42.7627005,59.67246 42.1958556,59.67246 L34.5808823,59.67246 C34.013369,59.67246 33.5541443,60.1316844 33.5541443,60.6991979 C33.5541443,61.2660429 34.013369,61.7259359 34.5808823,61.7259359 Z" id="Path" fill="#B0BEC5"></path>
                    </g>
                    <g id="check" transform="translate(36.000000, 41.000000)">
                        <path d="M20,0 C8.97155766,0 0,8.97155766 0,20 C0,31.0284423 8.97155766,40 20,40 C31.0284423,40 40,31.0284423 40,20 C40,8.97155766 31.0284423,0 20,0 Z" id="Path" stroke="#525A61" stroke-width="3" fill="#66BB6A"></path>
                        <path d="M30.1367188,15.7617187 L19.3032837,26.5948486 C18.9782715,26.9198609 18.5516358,27.0834351 18.125,27.0834351 C17.6983642,27.0834351 17.2717285,26.9198609 16.9467163,26.5948486 L11.5301514,21.1782837 C10.8782959,20.5267334 10.8782959,19.4732666 11.5301514,18.8217163 C12.1817016,18.1698609 13.2348633,18.1698609 13.8867188,18.8217163 L18.125,23.0599976 L27.7801514,13.4051514 C28.4317016,12.7532959 29.4848633,12.7532959 30.1367188,13.4051514 C30.7882691,14.0567016 30.7882691,15.1098633 30.1367188,15.7617187 Z" id="Path" fill="#FAFAFA"></path>
                    </g>
                </g>
            </g>
        </g>
    </g>
</svg>