<svg xmlns="http://www.w3.org/2000/svg" width="16.207" height="16.451" viewBox="0 0 16.207 16.451">
    <g id="prefix__adjust" transform="translate(-3.762)">
        <g id="prefix__settings" transform="translate(3.762)">
            <path id="prefix__Path_1417" fill="#90a4ae" d="M17.93 9.093c0-.248.083-.5.083-.827a2.549 2.549 0 0 0-.083-.827l1.736-1.405a.389.389 0 0 0 .083-.5L18.1 2.645a.463.463 0 0 0-.5-.083l-2.067.827a7.85 7.85 0 0 0-1.405-.827L13.8.413A.333.333 0 0 0 13.466 0H10.16c-.165 0-.413.165-.413.331l-.331 2.232a6.236 6.236 0 0 0-1.405.827l-1.985-.827a.511.511 0 0 0-.579.165L3.794 5.621c-.083.083 0 .331.165.5L5.7 7.44c0 .248-.083.5-.083.827a2.549 2.549 0 0 0 .083.827L3.959 10.5a.389.389 0 0 0-.083.5l1.654 2.888a.463.463 0 0 0 .5.083l2.067-.827a7.85 7.85 0 0 0 1.405.827l.331 2.149a.378.378 0 0 0 .413.331h3.307c.165 0 .413-.165.413-.331l.331-2.149a7.85 7.85 0 0 0 1.405-.827l2.067.827a.4.4 0 0 0 .5-.165l1.653-2.893c.083-.165.083-.413-.083-.5zm-6.117 2.067a2.893 2.893 0 1 1 2.893-2.893 2.929 2.929 0 0 1-2.893 2.893z" data-name="Path 1417" transform="translate(-3.762)"/>
        </g>
    </g>
</svg>
