<svg xmlns="http://www.w3.org/2000/svg" id="prefix__download" width="18.257" height="17.365" viewBox="0 0 18.257 17.365">
    <defs>
        <style>
            .prefix__cls-1{fill:#78909c}
        </style>
    </defs>
    <g id="prefix__Group_145" data-name="Group 145">
        <g id="prefix__Group_144" data-name="Group 144">
            <path id="prefix__Path_1351" d="M18.193 124.928l-2.378-5.116a.424.424 0 0 0-.4-.212h-2.041a.425.425 0 1 0 0 .849h1.762l1.974 4.246h-2.42a2.781 2.781 0 0 0-2.547 1.635 1.974 1.974 0 0 1-1.783 1.125H7.9a1.974 1.974 0 0 1-1.783-1.125 2.781 2.781 0 0 0-2.547-1.635H1.189l2.335-4.246h1.359a.425.425 0 1 0 0-.849H3.269a.4.4 0 0 0-.382.191l-2.8 5.137A.255.255 0 0 0 0 125.1v5.286a2.229 2.229 0 0 0 2.187 2.165H16.07a2.229 2.229 0 0 0 2.187-2.165V125.1a.4.4 0 0 0-.064-.172z" class="prefix__cls-1" data-name="Path 1351" transform="translate(0 -115.184)"/>
            <path id="prefix__Path_1352" d="M147.167 20.8a.4.4 0 0 0 .57.025l.025-.025 2.887-2.908a.425.425 0 0 0-.594-.594l-2.165 2.165V11.4a.425.425 0 0 0-.849 0v8.067l-2.167-2.167a.425.425 0 0 0-.594.594z" class="prefix__cls-1" data-name="Path 1352" transform="translate(-138.335 -10.971)"/>
        </g>
    </g>
</svg>
