<svg xmlns="http://www.w3.org/2000/svg" width="19.421" height="17.278" viewBox="0 0 19.421 17.278">
    <path id="prefix__heart" fill="#78909c" d="M17.881 1.691A5.222 5.222 0 0 0 14 0a4.886 4.886 0 0 0-3.052 1.053 6.243 6.243 0 0 0-1.237 1.289 6.24 6.24 0 0 0-1.234-1.289A4.885 4.885 0 0 0 5.426 0a5.223 5.223 0 0 0-3.885 1.691A6.071 6.071 0 0 0 0 5.837a7.229 7.229 0 0 0 1.926 4.732 41.074 41.074 0 0 0 4.822 4.526c.668.569 1.425 1.215 2.212 1.9a1.14 1.14 0 0 0 1.5 0c.786-.688 1.544-1.333 2.212-1.9a41.051 41.051 0 0 0 4.828-4.527 7.228 7.228 0 0 0 1.926-4.732 6.07 6.07 0 0 0-1.541-4.145zm0 0"/>
</svg>
