<svg xmlns="http://www.w3.org/2000/svg" width="17" height="16">
    <path fill="#FFF" fill-rule="evenodd" d="M15.86 11.433c-.741.833-1.737 1.331-2.803 1.41h-2.629a.475.475 0 0 1-.472-.481c0-.267.21-.48.472-.48h2.576c1.685-.132 3.052-1.67 3.052-3.439 0-1.669-1.175-3.132-2.73-3.403a.476.476 0 0 1-.392-.427C12.739 2.527 11.036.954 8.974.954a3.99 3.99 0 0 0-3.601 2.324.472.472 0 0 1-.591.246 1.697 1.697 0 0 0-.598-.107c-.965 0-1.751.801-1.751 1.783 0 .217.035.42.105.613a.488.488 0 0 1-.206.583A2.862 2.862 0 0 0 .944 8.852c0 1.56 1.202 2.944 2.632 3.033h2.992c.263 0 .472.214.472.481s-.209.48-.472.48H3.534c-.951-.053-1.842-.512-2.517-1.288A4.129 4.129 0 0 1 0 8.856c0-1.221.584-2.367 1.545-3.079a3.05 3.05 0 0 1-.056-.569c0-1.513 1.21-2.745 2.695-2.745.175 0 .35.018.518.05A4.953 4.953 0 0 1 6.299.801a4.862 4.862 0 0 1 5.992.512 5.027 5.027 0 0 1 1.535 2.866c1.831.491 3.17 2.267 3.174 4.264a4.476 4.476 0 0 1-1.14 2.99zM6.002 9.454a.472.472 0 0 1-.332-.142.486.486 0 0 1 0-.68l2.5-2.545a.456.456 0 0 1 .664 0l2.499 2.545a.484.484 0 0 1 0 .68.461.461 0 0 1-.664 0L8.974 7.585v7.934c0 .267-.21.481-.472.481a.474.474 0 0 1-.472-.481V7.585L6.334 9.312a.456.456 0 0 1-.332.142z"/>
</svg>
