<svg xmlns="http://www.w3.org/2000/svg" width="14" height="14">
    <path fill="#546E7A" fill-rule="evenodd" d="M13.781 12.752l-3.45-3.466a5.52 5.52 0 0 0 1.373-3.634C11.704 2.536 9.079 0 5.851 0 2.624 0-.001 2.536-.001 5.652c0 3.117 2.625 5.653 5.852 5.653a5.934 5.934 0 0 0 3.354-1.023l3.476 3.492a.774.774 0 0 0 .55.226.774.774 0 0 0 .529-.206.72.72 0 0 0 .021-1.042zM5.851 1.475c2.386 0 4.327 1.874 4.327 4.177 0 2.304-1.941 4.178-4.327 4.178-2.385 0-4.326-1.874-4.326-4.178 0-2.303 1.941-4.177 4.326-4.177z"/>
</svg>
