<svg xmlns="http://www.w3.org/2000/svg" id="prefix__logout" width="15.605" height="15.605" viewBox="0 0 15.605 15.605">
    <defs>
        <style>
            .prefix__cls-1{fill:#90a4ae}
        </style>
    </defs>
    <path id="prefix__Path_1348" d="M9.753 8.457a.65.65 0 0 0-.65.65v2.6a.651.651 0 0 1-.65.65H6.5V2.6a1.311 1.311 0 0 0-.886-1.236l-.19-.064h3.029a.651.651 0 0 1 .65.65v1.955a.65.65 0 1 0 1.3 0V1.954A1.953 1.953 0 0 0 8.453 0h-6.99a.511.511 0 0 0-.07.014C1.362.015 1.332 0 1.3 0A1.3 1.3 0 0 0 0 1.3V13a1.311 1.311 0 0 0 .886 1.236l3.913 1.3a1.346 1.346 0 0 0 .4.06 1.3 1.3 0 0 0 1.3-1.3v-.65h1.954a1.953 1.953 0 0 0 1.947-1.938v-2.6a.65.65 0 0 0-.65-.65zm0 0" class="prefix__cls-1" data-name="Path 1348" transform="translate(0 -.004)"/>
    <path id="prefix__Path_1349" d="M284.294 109.457l-2.6-2.6a.65.65 0 0 0-1.11.46v1.951h-2.6a.65.65 0 1 0 0 1.3h2.6v1.951a.65.65 0 0 0 1.11.46l2.6-2.6a.65.65 0 0 0 0-.922zm0 0" class="prefix__cls-1" data-name="Path 1349" transform="translate(-268.879 -103.415)"/>
</svg>
