<svg xmlns="http://www.w3.org/2000/svg" width="148.5" height="198" viewBox="0 0 148.5 198">
    <path id="prefix__password" fill="#c9cfd2" d="M132.938 74.25h-6.188V49.5a49.5 49.5 0 1 0-99 0v24.75h-6.187A18.585 18.585 0 0 0 3 92.813v86.625A18.585 18.585 0 0 0 21.563 198h111.375a18.585 18.585 0 0 0 18.562-18.562V92.813a18.585 18.585 0 0 0-18.562-18.563zM44.25 49.5a33 33 0 1 1 66 0v24.75h-66zm41.25 88.456v18.794a8.25 8.25 0 1 1-16.5 0v-18.794a16.5 16.5 0 1 1 16.5 0z" transform="translate(-3)"/>
</svg>
