<svg xmlns="http://www.w3.org/2000/svg" id="prefix__question" width="15.955" height="15.955" viewBox="0 0 15.955 15.955">
    <defs>
        <style>
            .prefix__cls-1{fill:#90a4ae}
        </style>
    </defs>
    <path id="prefix__Path_1366" d="M208.443 203.286a5.173 5.173 0 0 0-2.837-4.606 7.035 7.035 0 0 1-6.927 6.927 5.159 5.159 0 0 0 7.23 2.12l2.511.694-.694-2.511a5.139 5.139 0 0 0 .717-2.624zm0 0" class="prefix__cls-1" data-name="Path 1366" transform="translate(-192.489 -192.489)"/>
    <path id="prefix__Path_1367" d="M12.184 6.092A6.092 6.092 0 1 0 .845 9.189l-.823 2.973L3 11.339a6.093 6.093 0 0 0 9.189-5.247zM5.157 4.674h-.935a1.87 1.87 0 1 1 3.131 1.38l-.794.727v.729h-.934V6.369l1.1-1a.925.925 0 0 0 .3-.69.935.935 0 0 0-1.87 0zm.467 3.771h.936v.935h-.935zm0 0" class="prefix__cls-1" data-name="Path 1367"/>
</svg>
