<?xml version="1.0" standalone="no"?>
<!DOCTYPE svg PUBLIC "-//W3C//DTD SVG 20010904//EN"
 "http://www.w3.org/TR/2001/REC-SVG-20010904/DTD/svg10.dtd">
<svg version="1.0" xmlns="http://www.w3.org/2000/svg"
 width="70.000000pt" height="70.000000pt" viewBox="0 0 70.000000 70.000000"
 preserveAspectRatio="xMidYMid meet">
<metadata>
Created by potrace 1.11, written by Peter Selinger 2001-2013
</metadata>
<g transform="translate(0.000000,70.000000) scale(0.100000,-0.100000)"
fill="#000000" stroke="none">
<path d="M337 693 c-17 -17 -1 -33 81 -78 48 -26 89 -51 92 -55 7 -9 43 -24
53 -22 4 1 7 -3 7 -10 0 -6 3 -8 6 -5 4 3 15 -4 25 -17 26 -33 23 -133 -3
-139 -17 -5 -18 0 -15 44 3 31 0 49 -7 49 -6 0 -5 4 3 9 11 7 9 10 -8 16 -11
3 -21 11 -21 16 0 6 -4 8 -9 5 -5 -3 -14 1 -21 9 -7 8 -16 15 -21 15 -8 0 -71
36 -139 79 -14 8 -28 15 -32 14 -3 -2 -12 4 -18 12 -15 18 -47 20 -53 3 -4
-13 80 -72 141 -99 17 -7 32 -17 32 -21 0 -5 5 -8 10 -8 6 0 29 -12 53 -27 23
-15 43 -28 45 -29 7 -4 4 -109 -3 -127 -14 -34 -34 0 -30 53 3 49 -13 79 -47
84 -7 1 -28 12 -45 24 -17 12 -36 22 -42 22 -6 0 -11 4 -11 8 0 5 -16 14 -35
22 -19 8 -35 17 -35 22 0 4 -5 8 -11 8 -6 0 -23 9 -38 19 -35 25 -42 24 -127
-26 l-71 -42 2 -168 c1 -173 7 -212 30 -193 9 8 12 53 11 172 l-1 161 30 22
c43 32 81 46 98 37 11 -5 -22 -42 -38 -42 -6 0 -20 -9 -32 -19 -18 -17 -20
-32 -21 -177 -1 -190 1 -208 26 -193 16 10 18 29 17 171 0 151 1 162 20 172
11 6 22 14 25 18 11 15 63 36 76 31 21 -8 6 -27 -41 -52 -25 -13 -46 -31 -46
-40 -6 -70 -4 -319 2 -332 4 -8 26 -24 48 -34 23 -10 41 -22 41 -27 0 -4 9 -8
21 -8 11 0 18 -4 15 -8 -8 -14 42 -12 71 3 15 8 24 15 18 15 -5 0 6 8 25 18
81 40 209 116 214 127 14 37 -16 30 -114 -26 -58 -33 -123 -71 -146 -84 l-40
-22 -40 19 c-48 25 -74 47 -74 64 0 15 26 12 42 -4 7 -7 16 -12 22 -12 5 0 17
-7 26 -15 14 -13 20 -12 50 5 19 10 43 22 53 26 9 3 17 10 17 15 0 5 6 9 13 9
8 0 42 18 76 40 34 22 66 40 71 40 13 0 50 37 50 50 0 20 -36 9 -98 -30 -34
-22 -67 -40 -72 -40 -6 0 -10 -5 -10 -12 0 -6 -3 -9 -6 -6 -3 3 -30 -9 -61
-28 -59 -35 -53 -36 -131 4 -30 15 -51 47 -39 58 5 5 45 -14 57 -26 3 -3 17
-11 31 -18 24 -13 30 -11 82 22 31 20 58 36 61 36 3 0 30 16 60 35 30 19 58
35 61 35 4 0 20 9 35 20 27 19 28 23 28 109 0 86 -1 89 -26 102 -15 7 -30 12
-34 11 -5 -1 -8 2 -8 7 0 5 -15 16 -32 25 -47 24 -72 40 -80 51 -4 6 -8 6 -8
1 0 -4 -11 -1 -24 8 -29 18 -95 56 -100 56 -1 0 -6 -3 -9 -7z m62 -243 c60
-30 66 -41 66 -105 0 -57 -1 -60 -40 -86 -57 -39 -69 -40 -125 -11 -55 28 -64
45 -62 110 1 52 10 64 65 91 51 26 49 26 96 1z"/>
</g>
</svg>
